<?xml version="1.0" standalone="no"?>
<!DOCTYPE svg PUBLIC "-//W3C//DTD SVG 20010904//EN"
 "http://www.w3.org/TR/2001/REC-SVG-20010904/DTD/svg10.dtd">
<svg version="1.0" xmlns="http://www.w3.org/2000/svg"
 width="500.000000pt" height="500.000000pt" viewBox="0 0 500.000000 500.000000"
 preserveAspectRatio="xMidYMid meet">

<g transform="translate(0.000000,500.000000) scale(0.100000,-0.100000)"
fill="#000000" stroke="none">
<path d="M3550 3882 c-30 -26 -65 -59 -78 -74 l-23 -27 -119 4 c-98 4 -122 2
-135 -11 -18 -19 -19 -26 -3 -42 17 -17 34 -15 90 13 49 24 131 34 142 17 3
-5 -28 -75 -68 -158 -40 -82 -88 -187 -106 -234 -19 -47 -41 -94 -50 -105 -9
-11 -29 -48 -43 -83 -23 -53 -27 -78 -27 -154 l0 -91 -60 -54 c-128 -116 -173
-273 -190 -666 0 -4 -22 -21 -50 -38 -63 -39 -93 -87 -94 -150 -1 -59 23 -95
85 -127 37 -20 56 -23 125 -20 69 3 87 7 123 31 27 18 50 44 62 70 42 94 14
161 -90 210 -60 30 -66 35 -74 72 -14 63 -1 251 22 340 22 83 78 188 104 193
25 5 30 -104 11 -249 -20 -150 -13 -199 36 -286 36 -63 78 -96 149 -117 72
-21 115 -20 192 4 246 76 351 354 229 605 -52 107 -178 205 -286 221 -24 3
-44 11 -44 16 0 5 20 35 44 66 23 31 50 71 58 87 17 33 39 145 36 185 -1 14 5
65 12 115 20 139 1 264 -47 317 -15 16 -13 21 26 59 35 35 46 41 70 36 20 -4
37 -1 52 12 18 15 20 21 10 39 -17 31 -29 28 -91 -26z m-55 -175 c38 -62 31
-298 -11 -391 -7 -17 -21 -57 -30 -89 -27 -99 -118 -177 -207 -177 -64 0 -69
11 -42 104 13 43 21 84 19 91 -8 21 116 307 192 442 38 68 49 71 79 20z m-271
-713 c24 -9 19 -21 -13 -32 -35 -12 -44 -6 -30 19 10 20 18 23 43 13z m261
-113 c139 -67 227 -223 210 -377 -12 -118 -95 -239 -193 -282 -45 -19 -171
-21 -223 -4 -80 28 -119 105 -119 236 0 137 58 323 132 429 17 24 26 27 76 27
42 0 73 -8 117 -29z m-255 -3 c0 -20 -43 -91 -57 -96 -9 -2 -13 9 -13 37 0 30
6 44 22 55 27 19 48 21 48 4z m-251 -912 c8 -10 8 -16 -3 -25 -18 -15 -46 -3
-46 20 0 22 32 26 49 5z"/>
<path d="M246 2959 c-14 -21 -16 -65 -16 -379 0 -268 3 -361 13 -380 l13 -25
174 1 c134 1 186 5 223 18 77 26 122 52 155 91 69 77 92 153 92 300 0 147 -20
206 -94 283 -81 86 -136 102 -362 109 l-181 6 -17 -24z m316 -103 c98 -23 145
-72 174 -181 26 -97 8 -224 -42 -296 -41 -60 -94 -83 -206 -87 -95 -4 -97 -4
-103 19 -3 13 -4 141 -3 284 l3 260 55 6 c30 3 57 6 60 7 3 1 31 -4 62 -12z"/>
<path d="M2325 2908 c-2 -7 -6 -40 -7 -73 l-3 -60 -40 -5 c-32 -4 -41 -10 -49
-32 -6 -18 -6 -38 0 -55 8 -23 17 -29 49 -33 l40 -5 5 -190 c5 -173 7 -193 27
-225 12 -19 30 -40 41 -47 48 -29 177 -27 207 4 14 14 21 84 9 95 -3 4 -19 2
-35 -2 -18 -5 -41 -5 -59 2 -43 14 -52 57 -48 223 l3 140 67 3 c75 3 83 12 76
83 l-3 34 -70 5 -70 5 -5 70 -5 70 -63 3 c-44 2 -64 -1 -67 -10z"/>
<path d="M1209 2766 c-100 -35 -159 -102 -184 -208 -19 -82 -19 -107 2 -198
16 -67 23 -81 68 -126 46 -46 56 -52 131 -68 75 -16 87 -16 148 -2 82 19 112
34 153 78 58 61 77 119 77 238 -1 85 -5 113 -22 150 -28 61 -87 114 -146 134
-59 19 -176 20 -227 2z m171 -114 c56 -28 75 -72 75 -177 0 -104 -24 -163 -75
-190 -38 -19 -103 -19 -141 1 -37 19 -68 84 -76 157 -9 94 37 198 97 220 31
11 86 6 120 -11z"/>
<path d="M1863 2751 c-43 -20 -70 -41 -87 -68 -74 -113 -84 -283 -23 -403 46
-90 164 -139 276 -115 33 7 74 21 93 32 31 18 33 23 36 76 2 31 -1 57 -6 57
-6 0 -36 -14 -68 -31 -48 -25 -66 -29 -97 -25 -86 14 -122 73 -122 201 0 90
20 145 63 173 38 25 110 20 170 -11 l52 -27 6 26 c21 84 -38 136 -161 142 -61
3 -78 -1 -132 -27z"/>
<path d="M4122 2748 c-23 -18 -45 -40 -48 -50 -9 -30 -24 -20 -24 15 0 18 -5
38 -12 45 -14 14 -90 16 -103 3 -6 -6 -9 -126 -7 -300 l3 -291 59 0 c33 0 62
5 66 11 4 7 7 91 8 189 l1 177 28 36 c45 60 87 75 157 56 24 -6 27 111 4 128
-32 24 -87 16 -132 -19z"/>
<path d="M4468 2766 c-57 -21 -86 -43 -104 -78 -20 -38 -22 -124 -4 -158 27
-53 37 -60 170 -115 66 -27 80 -42 80 -86 0 -31 -5 -42 -26 -56 -39 -25 -109
-21 -176 10 -57 25 -58 26 -69 6 -14 -28 -2 -77 24 -94 12 -8 52 -21 89 -30
58 -13 74 -13 127 -1 106 25 154 65 172 145 19 85 -25 157 -121 198 -25 11
-64 28 -88 38 -63 27 -83 83 -44 118 24 22 116 23 165 2 53 -22 57 -20 57 30
0 40 -3 46 -32 61 -44 23 -171 29 -220 10z"/>
<path d="M3281 1986 c-8 -9 -10 -131 -9 -432 l3 -419 50 -3 c54 -4 75 12 75
55 0 13 2 23 4 23 2 0 20 -16 40 -35 50 -47 122 -68 186 -54 127 27 193 135
194 314 1 145 -43 244 -127 284 -74 36 -153 27 -229 -26 -20 -13 -42 -22 -47
-18 -7 4 -11 62 -11 160 0 171 3 165 -75 165 -24 0 -48 -6 -54 -14z m333 -387
c45 -35 60 -76 59 -164 0 -87 -15 -136 -55 -171 -50 -46 -105 -35 -170 32
l-38 38 0 91 c0 79 3 95 24 126 45 65 129 88 180 48z"/>
<path d="M1765 1927 c-3 -6 -4 -188 -3 -402 l3 -390 64 -3 c45 -2 67 1 72 10
5 7 9 86 9 176 0 121 3 164 13 167 6 3 80 2 162 -2 l150 -8 5 -170 5 -170 58
-3 c35 -2 64 2 73 9 12 9 14 76 14 393 0 284 -3 385 -12 394 -7 7 -39 12 -75
12 l-63 0 0 -155 c0 -138 -2 -155 -18 -164 -10 -5 -83 -9 -162 -8 l-145 2 -2
140 c-4 195 0 185 -79 185 -42 0 -66 -4 -69 -13z"/>
<path d="M2570 1711 c-6 -11 -10 -91 -10 -188 0 -187 15 -283 51 -334 27 -38
100 -72 154 -72 48 0 119 30 158 67 37 35 45 33 49 -11 3 -38 3 -38 51 -41 27
-2 55 2 63 9 21 17 21 561 0 578 -9 7 -38 11 -73 9 l-58 -3 -5 -196 c-5 -192
-6 -197 -30 -226 -53 -63 -111 -80 -158 -47 -44 31 -52 72 -52 274 0 211 5
200 -80 200 -39 0 -52 -4 -60 -19z"/>
</g>
</svg>
